<?xml version="1.0" encoding="utf-8"?>
<!-- Generator: Adobe Illustrator 23.0.1, SVG Export Plug-In . SVG Version: 6.00 Build 0)  -->
<svg version="1.1" xmlns="http://www.w3.org/2000/svg" xmlns:xlink="http://www.w3.org/1999/xlink" x="0px" y="0px"
	 viewBox="0 0 800 600" style="enable-background:new 0 0 800 600;" xml:space="preserve">
<style type="text/css">
	.st0{fill:none;stroke:#000000;stroke-width:0.5;stroke-linecap:round;stroke-linejoin:round;}
	.st1{font-family:'Roboto-Regular';}
	.st2{font-size:14px;}
</style>
<g id="Swaziland">
	<path class="st0" d="M552.586,105.452l7.963,7.592l8.784,4.746l20.349,5.238l-4.013,10.69l1.612,12.24l3.618,12.596l2.101,11.79
		l-1.106,9.083l-10.111,26.944l-1.485,9.937l3.808,35.187l2.291,9.56l14.44,29.189l3.16,28.009l-1.074,88.22l-4.929-2.231
		l-7.52-7.577l-4.898-0.956l-20.507-0.106l0.664,10.268l-5.182,30.289l-4.771,28.185l-5.372,31.542l0.64,21.185l-0.102-0.006
		l-8.847-0.515l-1.327-0.284l-0.948-0.693l0.142-1.971l0.332-1.811l-0.095-1.474l-0.806-0.799l-2.465-0.462l-5.356-0.284
		l-2.48-0.462l-2.038-0.763l-0.711-1.846l-0.19-1.544l0.332-5.946l-0.427-1.065l-1.043-0.816l-9.669-3.887l-3.002-0.834
		l-2.796-0.319l-2.417-0.586l-1.659-1.42l-5.593-13.554l-1.848-2.146l-2.907-1.064l-2.559,0.071l-8.911,2.377l-2.939,0.284
		l-3.002-0.337l-2.796-0.905l-2.796-1.313l-13.761-8.46l-7.489-5.78l-5.356-5.992l-2.954-2.482l-2.465-1.56l-1.896-0.461
		l-2.18-0.744l-1.564,0.461l-1.706,1.134l-1.801,0.425l-1.754-0.691l-2.133-1.861l-3.997-4.396l-1.659-2.392l-6.351-11.57
		l-0.853-2.409l0.948-2.994l1.09-2.232l3.887-6.252l1.991-4.516l5.514-6.782l1.469-2.656l0.711-2.708l-0.711-4.036l0.047-2.584
		l0.521-2.443l2.465-4.672l0.948-2.265l-1.611-1.504l-2.133-1.15l-17.695,0.672l0.284-6.865l1.991-7.996l7.109-17.737l1.09-1.697
		l1.232-1.397l1.232-0.937l17.837-8.414l2.18-1.962l1.248-2.934l-0.711-12.35l-1.706-10.422l-1.248-3.497l-2.607-4.556l-0.284-1.907
		l1.517-1.324l2.812-1.042l2.607-1.395l1.943-1.624l0.19-2.789l-0.19-1.818l-0.948-3.689l-0.095-1.977l0.332-2.63l1.564-3.335
		l0.379-8.011l-0.427-2.805l-1.28-4.34l-0.047-1.464l0.616-0.97l4.029-2.328l1.801-1.358l0.995-1.535l0.047-2.892l0.474-2.381
		l2.086-2.592l5.846-5.166l2.986-3.332l2.844-3.914l1.943-5.129l1.137-5.358l0.711-8.546l2.512-8.844l-1.374-2.871l-0.474-1.761
		l0.379-2.114l-0.806-6.516l-6.256-19.876l2.18-3.344l0.853-8.359l-3.318-56.249l0.948-2.934l4.74,1.898l1.848,0.351h1.896
		l1.864-0.404l3.365-1.37l1.659-0.439l1.801-0.035l2.038-0.58l1.611-0.685l2.112-3.085l26.784,17.441l8.8,2.672l8.721-2.074
		L552.586,105.452z"/>
	<path class="st0" d="M230.983,219.057l22.182-28.15l20.76-37.138l16.462-39.635l4.661-17.923l3.966-7.097l27.079-24.267
		l30.84-27.585l8.595-4.315l10.585-2.806l9.005-0.14l7.773,2.596l32.388,21.018l32.388,21.029l28.075,18.265l5.003,3.257
		l-2.112,3.085l-1.611,0.685l-2.038,0.58l-1.801,0.035l-1.659,0.439l-3.365,1.37l-1.864,0.404h-1.896l-1.848-0.351l-4.74-1.898
		l-0.948,2.934l3.318,56.249l-0.853,8.359l-2.18,3.344l-10.064,4.312l-6.304,1.162l-12.197,0.158l-2.038,0.246l-2.322,0.704
		l-2.56,1.989l-1.422,1.655l-1.612,3.979l-0.758,1.18l-0.964,1.215l-2.796,1.99l-4.834,2.377l-1.375,1.004l-0.758,1.567
		l-0.948,5.706l-0.474,1.444l-0.569,0.951l-0.758,0.881l-2.18,1.303l-17.79,6.413l-3.286,1.744l-1.754,1.304l-2.038,0.793
		l-2.796,0.299l-10.68-1.462l-1.327,0.352l-0.995,1.18l-0.664,1.004l-0.569,1.463l-0.521,0.581l-1.232,0.74l-3.081,1.339
		l-9.116,2.837l-2.986,1.428l-1.991,1.41l-1.232,1.533l-0.758,1.428l-0.095,1.763l0.758,4.478l0.19,2.645l-0.379,1.957l-1.043,1.816
		l-3.507,3.456l-0.995,1.746l-0.047,1.781l0.521,2.24l0.379,2.734l-0.379,3.051l-0.758,3.122l-0.332,3.211l0.711,5.664l0.095,2.488
		l-0.758,1.588l-1.564,1.165l-2.48,0.776l-3.365-0.159l-3.697-1.094l-6.399-4.694l-2.48-2.241l-1.611-1.888l-1.043-0.529
		l-1.754-0.318l-3.934-0.176l-2.702,0.212l-1.896,0.547l-2.559,1.217l-3.144-0.176l-13.84-3.176l-1.675-0.194l-1.848-0.864
		l-1.422-1.447l-2.275-3.563l-2.559-5.062l-0.853-1.27l-0.901-1.005l-45.027-28.771L230.983,219.057z"/>
	<path class="st0" d="M227.307,387.845l-1.554-4.598l-3.507,4.353l-4.692,4l-5.182,2.903l-5.087,0.991l-5.308,0.319l-2.07-8
		l-3.049-23.496l-0.474-47.232l-0.379-36.375l6.62-25.584l28.359-36.071l3.745,1.586l45.027,28.771l0.901,1.005l0.853,1.27
		l2.559,5.062l2.275,3.563l1.422,1.447l1.848,0.864l1.675,0.194l13.84,3.176l3.144,0.176l2.559-1.217l1.896-0.547l2.702-0.212
		l3.934,0.176l1.754,0.318l1.043,0.529l1.611,1.888l2.48,2.241l6.399,4.694l3.697,1.094l3.365,0.159l2.48-0.776l1.564-1.165
		l0.758-1.588l-0.095-2.488l-0.711-5.664l0.332-3.211l0.758-3.122l0.379-3.051l-0.379-2.734l-0.521-2.24l0.047-1.781l0.995-1.746
		l3.507-3.456l1.043-1.816l0.379-1.957l-0.19-2.645l-0.758-4.478l0.095-1.763l0.758-1.428l1.232-1.533l1.991-1.41l2.986-1.428
		l9.116-2.837l3.081-1.339l1.232-0.74l0.521-0.581l0.569-1.463l0.664-1.004l0.995-1.18l1.327-0.352l10.68,1.462l2.796-0.299
		l2.038-0.793l1.754-1.304l3.286-1.744l17.79-6.413l2.18-1.303l0.758-0.881l0.569-0.951l0.474-1.444l0.948-5.706l0.758-1.567
		l1.375-1.004l4.834-2.377l2.796-1.99l0.964-1.215l0.758-1.18l1.612-3.979l1.422-1.655l2.56-1.989l2.322-0.704l2.038-0.246
		l12.197-0.158l6.304-1.162l10.064-4.312l6.256,19.876l0.806,6.516l-0.379,2.114l0.474,1.761l1.374,2.871l-2.512,8.844l-0.711,8.546
		l-1.137,5.358l-1.943,5.129l-2.844,3.914l-2.986,3.332l-5.846,5.166l-2.086,2.592l-0.474,2.381l-0.047,2.892l-0.995,1.535
		l-1.801,1.358l-4.029,2.328l-0.616,0.97l0.047,1.464l1.28,4.34l0.427,2.805l-0.379,8.011l-1.564,3.335l-0.332,2.63l0.095,1.977
		l0.948,3.689l0.19,1.818l-0.19,2.789l-1.943,1.624l-2.607,1.395l-2.812,1.042l-1.517,1.324l0.284,1.907l2.607,4.556l1.248,3.497
		l1.706,10.422l0.711,12.35l-1.248,2.934l-2.18,1.962l-17.837,8.414l-1.232,0.937l-1.232,1.397l-1.09,1.697l-7.109,17.737
		l-1.991,7.996l-0.284,6.865l-12.292-2.176l-6.32,1.274l-4.882,3.185l-2.085,1.752l-1.801,2.124l-2.559,2.442l-2.844,1.097
		l-14.33,1.434l-2.085,0.903l-1.09,0.956l-0.237,1.398l-0.663,1.452l-1.09,1.558l-2.907,2.23l-1.138,1.522l-0.758,1.487
		l-0.237,1.505l-0.284,4.692l-0.995,0.283l-1.991-0.496l-13.903-10.481l-3.223-1.876l-3.507-0.637l-2.939,0.956l-2.765,1.381
		l-2.559,0.584h-3.46l-4.029,1.221l-16.368,8.764l-13.666,10.803l-1.28,0.266l-0.521-0.886l0.142-1.647l0.332-1.877l1.138-3.223
		l0.332-1.275l-0.237-1.328l-4.266-5.613l-0.901-1.682l-0.142-1.328l0.521-1.611l0.474-2.337l0.047-2.885l-0.379-4.956l-0.521-1.911
		l-0.995-1.628l-2.607-2.69l-2.812-0.708h-2.796l-10.664,2.389l-6.983,0.319l-3.46-1.54l-3.365-2.902l-1.327-0.92h-0.758
		l-0.379,0.708l-1.327,0.672l-10.254,2.601L227.307,387.845z"/>
	<path class="st0" d="M337.19,541.217l-26.801-9.287l-4.613-3.126l-4.724-4.76l-14.598-22.123l-31.393-28.567l-6.857-11.918
		l-1.296-8.546l3.16-13.471l0.379-8.541l-1.801-6.803l-3.255-5.066l-8.753-9.316l-4.044-6.197l-5.287-15.652l4.34-4.704
		l10.254-2.601l1.327-0.672l0.379-0.708h0.758l1.327,0.92l3.365,2.902l3.46,1.54l6.983-0.319l10.664-2.389h2.796l2.812,0.708
		l2.607,2.69l0.995,1.628l0.521,1.911l0.379,4.956l-0.047,2.885l-0.474,2.337l-0.521,1.611l0.142,1.328l0.901,1.682l4.266,5.613
		l0.237,1.328l-0.332,1.275l-1.138,3.223l-0.332,1.877l-0.142,1.647l0.521,0.886l1.28-0.266l13.666-10.803l16.368-8.764l4.029-1.221
		h3.46l2.559-0.584l2.765-1.381l2.939-0.956l3.507,0.637l3.223,1.876l13.903,10.481l1.991,0.496l0.995-0.283l0.284-4.692
		l0.237-1.505l0.758-1.487l1.138-1.522l2.907-2.23l1.09-1.558l0.663-1.452l0.237-1.398l1.09-0.956l2.085-0.903l14.33-1.434
		l2.844-1.097l2.559-2.442l1.801-2.124l2.085-1.752l4.882-3.185l6.32-1.274l12.292,2.176l17.695-0.672l2.133,1.15l1.611,1.504
		l-0.948,2.265l-2.465,4.672l-0.521,2.443l-0.047,2.584l0.711,4.036l-0.711,2.708l-1.469,2.656l-5.514,6.782l-1.991,4.516
		l-3.887,6.252l-1.09,2.232l-0.948,2.994l0.853,2.409l6.351,11.57l1.659,2.392l3.997,4.396l2.133,1.861l1.754,0.691l1.801-0.425
		l1.706-1.134l1.564-0.461l2.18,0.744l1.896,0.461l2.465,1.56l2.954,2.482l5.356,5.992l7.489,5.78l13.761,8.46l2.796,1.313
		l2.796,0.905l3.002,0.337l2.939-0.284l8.911-2.377l2.559-0.071l2.907,1.064l1.848,2.146l5.593,13.554l1.659,1.42l2.417,0.586
		l2.796,0.319l3.002,0.834l9.669,3.887l1.043,0.816l0.427,1.065l-0.332,5.946l0.19,1.544l0.711,1.846l2.038,0.763l2.48,0.462
		l5.356,0.284l2.465,0.462l0.806,0.799l0.095,1.474l-0.332,1.811l-0.142,1.971l0.948,0.693l1.327,0.284l8.847,0.515l0.102,0.006
		l0.198,6.547l0.774,25.477l1.706,5.048l2.086,3.733l1.548,3.662l0.885,3.911L558.4,570l-27.411-0.356l-29.37-0.427l-44.521-0.605
		l-33.747-0.462l-20.507-4.196l-31.424-10.879l-23.398-8.104L337.19,541.217z"/>
</g>
<g id="Copyright">
	<text transform="matrix(1 0 0 1 681.6426 577.5916)" class="st1 st2">© Vemaps.com</text>
</g>
</svg>
