<?xml version="1.0" encoding="utf-8"?>
<!-- Generator: Adobe Illustrator 23.0.1, SVG Export Plug-In . SVG Version: 6.00 Build 0)  -->
<svg version="1.1" xmlns="http://www.w3.org/2000/svg" xmlns:xlink="http://www.w3.org/1999/xlink" x="0px" y="0px"
	 viewBox="0 0 800 600" style="enable-background:new 0 0 800 600;" xml:space="preserve">
<style type="text/css">
	.st0{fill:#808080;stroke:#FFFFFF;stroke-width:0.5;stroke-linecap:round;stroke-linejoin:round;}
	.st1{font-family:'Roboto-Regular';}
	.st2{font-size:14px;}
</style>
<g id="East_Timor">
	<path class="st0" d="M124.774,382.479l0.219,4.654l-3.354,12.626l-1.083,7.978l-0.874,1.983l-0.71,0.921l-0.874,0.779l-4.333,5.689
		l-6.721,5.76l-2.085,1.133l-1.025,0.047l-0.792,0.449l-1.503,2.385l-0.559,6.753l-0.827,1.747l-2.178,3.117l-0.78,1.724
		l0.047,1.559l1.025,3.967l-0.233,2.149l-1.98,3.141l-3.04,1.913l-3.832,0.992l-4.333,0.425l-2.76,0.685l-0.92,0.756l-0.21-0.425
		l-0.722-2.952v-1.346l0.792-4.038l0.14-1.7l-0.792-3.826l-1.607-3.92l-2.19-3.731l-2.562-3.117l-3.401-2.904l-2.982-1.299
		l-3.121,0.165l-3.692,1.535l-3.028,2.574l-4.519,6.257l-2.854,1.747l-6.942-1.228l-6.22-5.407L30,419.425l4.127-1.134l18.214-7.324
		l3.962-0.465l2.843-1.468l4.952-7.1l2.128-2.342l6.86-3.196l15.004-4.646l22.084-4.218l2.495-1.338l1.908-2.546l4.476-0.855
		l5.649-0.297L124.774,382.479z"/>
	<path class="st0" d="M283.026,380.34l-0.327-1.325l-0.955-2.407l-0.443-2.124l3.832-14.344l0.081-4.954l-1.887-4.529l-3.285-3.656
		l-4.077-2.948l-4.24-2.406l-1.631-1.486l-0.85-1.415l-1.06-0.542l-2.329,1.038l-0.78,1.297l-1.002,4.434l-0.734,1.675l-3.04,2.689
		l-10.681,4.694l-5.754,3.751l-2.935,1.203l-4.065,0.283l-3.343-0.92l-2.644-2.052l-1.875-2.901l-1.141-3.491l0.279-3.915
		l3.005-7.759l-0.671-5.547l7.726-4.421l4.732-4.679l10.914-16.671l0.99-3.508l2.091-2.023l10.107-3.75l3.32-2.858l0.88-4.009
		l0.584-8.663l0.046,0.018l4.368,1.685l4.473,1.933l6.709-0.047l1.596-0.354l1.619,3.983l8.34,1.65l3.587,1.791l2.749,4.62
		l6.336,12.353l6.336,12.921l1.211,4.527l0.652,6.792l2.329,5.424l14.07-0.519l5.486-1.592l-0.175,6.167l-0.384,5.684l-5.905,1.392
		l-5.358,4.576l-1.072,5.897l-0.792,8.446l-2.329,4.483l-7.361-0.33l-3.913,0.944l6.15,7.739l-1.817,6.891l-12.719,1.794
		l-8.293-0.755l-1.025-3.021l-1.584-2.36l-3.261-1.793l-7.641-2.36L283.026,380.34z"/>
	<path class="st0" d="M262.506,452.278l-2.408-13.955l-1.044-3.389l-5.078-8.028l-0.221-1.605l0.454-3.589l-0.314-1.464
		l-1.246-1.511l-4.775-2.998l-5.381-4.839l-1.537-2.573l-1.316-3.966l-1.363-7.883l0.862-6.75l3.727-4.578l7.385-1.321l4.612,0.047
		l1.537,0.425l1.561,1.156l2.69,3.068l1.421,0.873l3.215,0.189l1.945-1.322l2.003-2.006l3.494-1.888l2.469-0.212l5.544,0.354
		l1.829-0.849l0.734-2.195l-0.279-1.129l1.222,0.339l7.641,2.36l3.261,1.793l1.584,2.36l1.025,3.021l8.293,0.755l12.719-1.794
		l1.817-6.891l-6.15-7.739l3.913-0.944l7.361,0.33l2.329-4.483l0.792-8.446l1.072-5.897l5.358-4.576l5.905-1.392l0.291-0.071
		l2.935,3.397l1.538,3.397l3.215,1.462l2.376,5.709l0.745,8.918l2.982,3.539l4.985,1.274l3.587,2.124l-3.587,11.185l-1.633,6.251
		l-24.615,9.181l-8.107,5l-11.611,9.721l-6.218,2.714l-2.751,3.235l-4.182,6.321l-2.458,2.714l-2.458,1.952l-3.265,1.171
		l-10.528,0.781l-4.366,1.283l-3.815,2.436l-3.87,3.831L262.506,452.278z"/>
	<path class="st0" d="M399.65,385.466l-2.236,0.06l-11.445-1.672l-3.687,0.78l-4.604,3.679l-4.622,2.62l-14.454,5.389l1.633-6.251
		l3.587-11.185l-3.587-2.124l-4.985-1.274l-2.982-3.539l-0.745-8.918l-2.376-5.709l-3.215-1.462l-1.538-3.397l-2.935-3.397
		l-0.291,0.071l0.384-5.684l0.175-6.167l6.674-1.946l0.14-5.518l2.143-3.018l2.702-3.018l1.537-3.914l4.053-3.631l0.699-5.8
		l-1.072-2.028l0.978-0.141l10.576-1.462l7.361-2.735l4.566-5.563l1.491-4.196l4.845-1.084l2.795-1.886l2.795-1.886l6.616-1.037
		l3.82,0.66l-0.699,5.41l-0.047,0.389l-1.863,8.911l-0.978,5.611l-0.14,4.197l-0.652,6.46l-3.448,2.216l-7.454-0.094l-5.218,2.735
		l-0.746,4.339l-1.863,4.339l-1.817,3.207l-0.419,4.34l0.606,7.548l3.122,5.284l6.709,2.972l5.591,2.689l3.308,3.161l1.91,5.143
		l-1.351,3.492l-1.631,4.058l1.677,8.4L399.65,385.466z"/>
	<path class="st0" d="M484.723,354.427l-22.634,15.622l-4.2,1.338l-13.262-2.043l-4.457,0.353l-2.513,1.337l-4.916,4.143
		l-2.641,0.892h-9.355l-4.732,1.189l-14.454,8.157l-1.909,0.051l-0.606-1.577l-1.677-8.4l1.631-4.058l1.351-3.492l-1.91-5.143
		l-3.308-3.161l-5.591-2.689l-6.709-2.972l-3.122-5.284l-0.606-7.548l0.419-4.34l1.817-3.207l1.863-4.339l0.746-4.339l5.218-2.735
		l7.454,0.094l3.448-2.216l0.652-6.46l0.14-4.197l0.978-5.611l1.863-8.911l0.047-0.389l4.426-0.46l8.2-4.196l4.053-4.054
		l3.774-1.226l5.905,0.483l0.058,0.648l-1.537,12.776l2.656,10.231l6.895,5.706l6.895,3.725l7.78,3.82l5.265,6.367l3.494,5.518
		l9.923,5.802l9.691,6.887l2.982,5.189L484.723,354.427z"/>
	<path class="st0" d="M505.101,341.334l-3.613,1.504l-16.765,11.589l-0.514-2.719l-2.982-5.189l-9.691-6.887l-9.923-5.802
		l-3.494-5.518l-5.265-6.367l-7.78-3.82l-6.895-3.725l-6.895-5.706l-2.656-10.231l1.537-12.776l-0.058-0.648l-0.92-10.853
		l-3.494-8.106l-3.168-4.76l-3.168-7.304l1.386-7.81l5.695-1.614l4.939-6.125l4.379-3.298l3.541-4.758l-3.933-5.156l4.97-1.616
		l10.62-0.612l23.551,4.173l9.024,4.414l6.053,0.631l4.952-1.002l9.556-3.005l1.884-0.269l4.323,3.431l2.33,4.475l0.652,5.324
		l0.699,6.879l0.419,7.445l-1.491,5.042l-2.609,3.629l-4.729,4.407l-1.98-0.683l-4.473-0.707l-4.379,2.969l-2.702,7.211
		l-2.516,5.892l-4.193,2.781l-2.982,3.866l-0.745,4.431l5.311,8.203l4.752,8.77l0.14,4.904l0.978,4.904l2.469,6.791l3.867,5.66
		l5.917,7.453L505.101,341.334z"/>
	<path class="st0" d="M638.176,286.825l-7.705,0.559l-4.916,1.188l-2.641,1.262l-6.603,4.937l-1.651,0.724l-1.926,0.427l-4.952,0.26
		l-2.311,0.872l-8.823,10.135l-8.181,14.053l-7.979,7.056l-9.52,2.711l-59.576,7.688l-6.291,2.637l-0.066-0.287l-5.917-7.453
		l-3.867-5.66l-2.469-6.791l-0.978-4.904l-0.14-4.904l-4.752-8.77l-5.311-8.203l0.745-4.431l2.982-3.866l4.193-2.781l2.516-5.892
		l2.702-7.211l4.379-2.969l4.473,0.707l1.98,0.683l9.201,3.134l12.067,0.236l10.669-4.006l11.135-0.66l9.737,2.168l7.221,2.592
		l5.824,2.31l3.867-2.922l-0.885-6.881l0.699-6.833l1.537-5.985l4.379,4.335l3.82,9.99l6.103,3.016l9.178-1.508l5.963,0.801
		l3.727,2.215l2.935-1.414l2.656-5.373l5.358-2.592l7.315,2.215l5.218,1.414l4.1,3.11l3.168,4.148l-0.792,1.084l-1.631,5.703
		L638.176,286.825z"/>
	<path class="st0" d="M629.121,211.647l1.111-0.303l4.274-3.022l1.834-0.853l2.494-0.019l3.834,1.205l1.632,0.241l9.868-2.058
		l9.648-4.339l23.093-16.5l5.062-2.187l3.797,0.89l3.467,2.558l15.848,7.619l4.347,1.168l5.576,0.519l5.484-0.519l3.962-1.947
		l6.933-4.95l1.541-0.612l2.916,0.649l1.101,1.464l0.605,2.002l1.522,2.225l4.769,2.874l10.217,2.781l4.31,2.911l1.633,4.561
		l-2.256,3.894l-16.471,12.369l-10.327,10.423l-20.672,16.138l-14.564,14.211l-1.541,2.338l-2.678,0.223l-15.793,3.525
		l-14.509,10.559l-6.456,3.211l-26.558,1.928l-0.035-7.925l1.631-5.703l0.792-1.084l2.795-3.77l4.706-6.786l6.103-4.524l2.795-2.309
		l-1.677-3.723l-6.243-6.361l-7.92-7.208l-3.401-3.345l1.91-3.062l0.606-3.863l-3.587-2.167l-2.469-2.591l-1.631-5.699
		L629.121,211.647z"/>
	<path class="st0" d="M505.976,227.97l2.977-0.399l10.143-0.148l9.061-1.28l4.659-2.337l9.942-7.065l7.19-2.077l7.484-4.209
		l2.495-0.426l4.494-0.074l2.366-1.057l4.072,2.985l4.787,1.928l5.191,1.094l5.264,0.352l3.302,1.15l8.309,7.9l9.299-3.153
		l17.297-8.196l4.813-1.311l3.429,5.057l1.631,5.699l2.469,2.591l3.587,2.167l-0.606,3.863l-1.91,3.062l3.401,3.345l7.92,7.208
		l6.243,6.361l1.677,3.723l-2.795,2.309l-6.103,4.524l-4.706,6.786l-2.795,3.77l-3.168-4.148l-4.1-3.11l-5.218-1.414l-7.315-2.215
		l-5.358,2.592l-2.656,5.373l-2.935,1.414l-3.727-2.215l-5.963-0.801l-9.178,1.508l-6.103-3.016l-3.82-9.99l-4.379-4.335
		l-1.537,5.985l-0.699,6.833l0.885,6.881l-3.867,2.922l-5.824-2.31l-7.221-2.592l-9.737-2.168l-11.135,0.66l-10.669,4.006
		l-12.067-0.236l-9.201-3.134l4.729-4.407l2.609-3.629l1.491-5.042l-0.419-7.445l-0.699-6.879l-0.652-5.324l-2.33-4.475
		L505.976,227.97z"/>
	<path class="st0" d="M359.022,242.873l11.649-5.287l5.503-0.668l5.833,1.707l2.641-0.148l6.163-6.232l4.145,1.818l6.677,0.185
		l12.234-2.003l21.498-6.99l3.933,5.156l-3.541,4.758l-4.379,3.298l-4.939,6.125l-5.695,1.614l-0.454,0.13l-6.15-3.628l-8.666-0.565
		l-10.343,5.089l-7.641,4.194l-5.404,1.084l-7.175,2.45l-8.852,1.319l-2.073-1.543l-3.238-2.415l-1.398-7.35L359.022,242.873z
		 M376.944,158.162l2.458-3.966l5.613-5.911l6.163-4.095l4.09,1.779l-1.926,7.264l-8.694,21.424l-1.541,6.932l-0.991,1.835
		l-2.091,1.613l-2.128,0.667l-0.954-1.001l-1.486-0.853l-7.264-2.206l-2.916-1.668l-2.366-2.688l-0.77-2.187l0.605-2.224
		l1.761-3.021l2.806-2.724l7.979-6.06L376.944,158.162z"/>
	<path class="st0" d="M271.821,282.099l0.792-11.751l1.926-5.195l2.916-4.638l3.687-3.228l4.512-1.521l10.327-1.596l4.31-2.337
		l1.816-0.445l8.254,1.224l2.531-0.705l6.677-3.97l14.931-4.322l4.531-0.501l14.839,1.002l4.622-1.002l0.53-0.241l0.328,2.096
		l1.398,7.35l3.238,2.415l-2.399,4.182l-1.456,2.545l-5.998-0.283l-8.06,2.78l-6.103,4.76l-4.007,3.158l-9.038,1.744l-10.902,2.074
		l-5.87,3.205l-10.389,4.101l-10.75,2.333l-1.596,0.354l-6.709,0.047l-4.473-1.933l-4.368-1.685L271.821,282.099z"/>
	<path class="st0" d="M289.012,285.334l10.75-2.333l10.389-4.101l5.87-3.205l10.902-2.074l9.038-1.744l4.007-3.158l6.103-4.76
		l8.06-2.78l5.998,0.283l1.037,0.047l2.283,4.571l-2.609,7.022l-4.845,2.781l-7.268,2.498l-0.559,2.781l3.587,3.63l-1.724,5.044
		l-3.68,4.526l3.308,3.394l6.057,3.017l1.025,4.149l1.864,3.489l1.072,2.028l-0.699,5.8l-4.053,3.631l-1.537,3.914l-2.702,3.018
		l-2.143,3.018l-0.14,5.518l-6.674,1.946l-5.486,1.592l-14.07,0.519l-2.329-5.424l-0.652-6.792l-1.211-4.527l-6.336-12.921
		l-6.336-12.353l-2.749-4.62l-3.587-1.791l-8.34-1.65L289.012,285.334z"/>
	<path class="st0" d="M363.985,254.735l2.073,1.543l8.852-1.319l7.175-2.45l5.404-1.084l7.641-4.194l10.343-5.089l8.666,0.565
		l6.15,3.628l0.454-0.13l-1.386,7.81l3.168,7.304l3.168,4.76l3.494,8.106l0.92,10.853l-5.905-0.483l-3.774,1.226l-4.053,4.054
		l-8.2,4.196l-4.426,0.46l0.699-5.41l-3.82-0.66l-6.616,1.037l-2.795,1.886l-2.795,1.886l-4.845,1.084l-1.491,4.196l-4.566,5.563
		l-7.361,2.735l-10.576,1.462l-0.978,0.141l-1.864-3.489l-1.025-4.149l-6.057-3.017l-3.308-3.394l3.68-4.526l1.724-5.044
		l-3.587-3.63l0.559-2.781l7.268-2.498l4.845-2.781l2.609-7.022l-2.283-4.571l-1.037-0.047l1.456-2.545L363.985,254.735z"/>
</g>
<g id="Copyright">
	<text transform="matrix(1 0 0 1 681.6426 577.5916)" class="st1 st2">© Vemaps.com</text>
</g>
</svg>
